<svg width="14" height="15" viewBox="0 0 14 15" fill="none" xmlns="http://www.w3.org/2000/svg">
<path d="M1 3.16667H13M10 3.16667L9.79705 2.58027C9.60032 2.01201 9.50193 1.72788 9.31953 1.51782C9.15843 1.33232 8.95157 1.18873 8.71787 1.10023C8.4532 1 8.14225 1 7.5202 1H6.4798C5.85775 1 5.5468 1 5.28213 1.10023C5.04844 1.18873 4.84156 1.33232 4.68047 1.51782C4.49804 1.72788 4.39969 2.01201 4.20298 2.58027L4 3.16667M11.5 3.16667V10.5333C11.5 11.7468 11.5 12.3535 11.2548 12.817C11.0391 13.2247 10.6949 13.5561 10.2715 13.7638C9.79015 14 9.16015 14 7.9 14H6.1C4.83988 14 4.20982 14 3.72852 13.7638C3.30515 13.5561 2.96095 13.2247 2.74524 12.817C2.5 12.3535 2.5 11.7468 2.5 10.5333V3.16667M8.5 6.05556V11.1111M5.5 6.05556V11.1111" stroke="#D1D1D1" stroke-width="1.5" stroke-linecap="round" stroke-linejoin="round"/>
</svg>
