<svg width="15" height="15" viewBox="0 0 15 15" fill="none" xmlns="http://www.w3.org/2000/svg">
<g clip-path="url(#clip0_190_225)">
<path fill-rule="evenodd" clip-rule="evenodd" d="M7.5 2.25C6.81056 2.25 6.12787 2.3858 5.49091 2.64963C4.85395 2.91347 4.2752 3.30018 3.78769 3.78769C3.30018 4.2752 2.91347 4.85395 2.64963 5.49091C2.3858 6.12787 2.25 6.81056 2.25 7.5C2.25 8.18944 2.3858 8.87213 2.64963 9.50909C2.91347 10.146 3.30018 10.7248 3.78769 11.2123C4.2752 11.6998 4.85395 12.0865 5.49091 12.3504C6.12787 12.6142 6.81056 12.75 7.5 12.75C8.89239 12.75 10.2277 12.1969 11.2123 11.2123C12.1969 10.2277 12.75 8.89239 12.75 7.5C12.75 6.10761 12.1969 4.77226 11.2123 3.78769C10.2277 2.80312 8.89239 2.25 7.5 2.25ZM0.75 7.5C0.75 5.70979 1.46116 3.9929 2.72703 2.72703C3.9929 1.46116 5.70979 0.75 7.5 0.75C9.29021 0.75 11.0071 1.46116 12.273 2.72703C13.5388 3.9929 14.25 5.70979 14.25 7.5C14.25 9.29021 13.5388 11.0071 12.273 12.273C11.0071 13.5388 9.29021 14.25 7.5 14.25C5.70979 14.25 3.9929 13.5388 2.72703 12.273C1.46116 11.0071 0.75 9.29021 0.75 7.5ZM6.75 4.5C6.75 4.30109 6.82902 4.11032 6.96967 3.96967C7.11032 3.82902 7.30109 3.75 7.5 3.75H7.5075C7.70641 3.75 7.89718 3.82902 8.03783 3.96967C8.17848 4.11032 8.2575 4.30109 8.2575 4.5C8.2575 4.69891 8.17848 4.88968 8.03783 5.03033C7.89718 5.17098 7.70641 5.25 7.5075 5.25H7.5C7.30109 5.25 7.11032 5.17098 6.96967 5.03033C6.82902 4.88968 6.75 4.69891 6.75 4.5ZM6.7575 10.5C6.7575 10.6989 6.83652 10.8897 6.97717 11.0303C7.11782 11.171 7.30859 11.25 7.5075 11.25C7.70641 11.25 7.89718 11.171 8.03783 11.0303C8.17848 10.8897 8.2575 10.6989 8.2575 10.5V6.75C8.2575 6.55109 8.17848 6.36032 8.03783 6.21967C7.89718 6.07902 7.70641 6 7.5075 6C7.30859 6 7.11782 6.07902 6.97717 6.21967C6.83652 6.36032 6.7575 6.55109 6.7575 6.75V10.5Z" fill="#D1D1D1"/>
</g>
<defs>
<clipPath id="clip0_190_225">
<rect width="15" height="15" fill="white"/>
</clipPath>
</defs>
</svg>
